<svg id="be9a73c6-0571-4a73-bdcf-0cf609f4f8a7" data-name="Ebene 1" xmlns="http://www.w3.org/2000/svg" viewBox="0 0 136.58 131.75"><defs><style>.e692834a-5ad1-429f-8132-7947ac8fce08,.f4e7519d-b4e9-4357-92c3-510f4036502a{fill:#dda704;}.a1b0dc79-e557-4da3-b9f4-7b323552af2c,.f4e7519d-b4e9-4357-92c3-510f4036502a{stroke:#009640;stroke-linejoin:round;stroke-width:3px;}.a1b0dc79-e557-4da3-b9f4-7b323552af2c,.bf87a160-0188-48c3-935d-8183463f3705{fill:#1d1d1b;}.bfbfd41a-2e04-4017-84f5-21890fb830da{fill:#f1eee6;}</style></defs><path class="e692834a-5ad1-429f-8132-7947ac8fce08" d="M63.74,118.14"/><path class="e692834a-5ad1-429f-8132-7947ac8fce08" d="M74.34,118.14"/><path class="f4e7519d-b4e9-4357-92c3-510f4036502a" d="M15,64.57"/><path class="e692834a-5ad1-429f-8132-7947ac8fce08" d="M121,41.43"/><path class="bf87a160-0188-48c3-935d-8183463f3705" d="M62.74,117.19"/><path class="bf87a160-0188-48c3-935d-8183463f3705" d="M73.34,117.19"/><line class="bfbfd41a-2e04-4017-84f5-21890fb830da" x1="2" y1="76.04" x2="134.33" y2="46.04"/><polygon class="bfbfd41a-2e04-4017-84f5-21890fb830da" points="0 79.58 0 73.44 136.58 42.46 136.58 48.6 0 79.58"/><polygon class="bfbfd41a-2e04-4017-84f5-21890fb830da" points="93.58 14.63 102.5 14.63 102.5 43.93 93.58 45.95 93.58 14.63"/><polygon class="bfbfd41a-2e04-4017-84f5-21890fb830da" points="33.33 14.63 33.33 59.72 42.33 57.75 42.33 14.63 33.33 14.63"/><polygon class="bfbfd41a-2e04-4017-84f5-21890fb830da" points="33.33 78.16 33.33 117.12 44.01 117.12 67.92 91.78 69.39 91.83 69.39 81.29 65.34 81.29 42.23 105.81 42.33 76 33.33 78.16"/><polygon class="bfbfd41a-2e04-4017-84f5-21890fb830da" points="102.5 62.35 102.5 117.12 91.83 117.12 67.92 91.78 67.03 91.83 67.03 81.29 70.5 81.29 93.6 105.81 93.58 64.36 102.5 62.35"/><path class="bfbfd41a-2e04-4017-84f5-21890fb830da" d="M15.83,63.72l-3,.68.09-62.9A1.5,1.5,0,0,1,14.42,0H121.5A1.5,1.5,0,0,1,123,1.5V39.41l-3,.68V3H15.91Z"/><path class="bfbfd41a-2e04-4017-84f5-21890fb830da" d="M120,58.48,123,57.8,123,130.25a1.5,1.5,0,0,1-1.5,1.5H14.36a1.5,1.5,0,0,1-1.5-1.5l0-47.45,2.95-.63,0,46.58H120Z"/><path class="a1b0dc79-e557-4da3-b9f4-7b323552af2c" d="M14,63.62"/><path class="bf87a160-0188-48c3-935d-8183463f3705" d="M120,40.48"/></svg>