<?xml version="1.0" encoding="utf-8"?>
<!-- Generator: Adobe Illustrator 16.0.0, SVG Export Plug-In . SVG Version: 6.00 Build 0)  -->
<!DOCTYPE svg PUBLIC "-//W3C//DTD SVG 1.1//EN" "http://www.w3.org/Graphics/SVG/1.1/DTD/svg11.dtd">
<svg version="1.1" id="Ebene_1" xmlns="http://www.w3.org/2000/svg" xmlns:xlink="http://www.w3.org/1999/xlink" x="0px" y="0px"
	 width="283.46px" height="283.46px" viewBox="0 0 283.46 283.46" enable-background="new 0 0 283.46 283.46" xml:space="preserve">
<path fill="#DDA704" d="M136.827,194.012"/>
<path fill="#DDA704" d="M147.426,194.012"/>
<path fill="#DDA704" stroke="#009640" stroke-width="3" stroke-linejoin="round" stroke-miterlimit="10" d="M88.125,140.449"/>
<path fill="#DDA704" d="M194.078,117.309"/>
<path d="M135.827,193.063"/>
<path d="M146.426,193.063"/>
<rect x="166.667" y="90.5" fill="#212529" width="8.917" height="42.79"/>
<polygon fill="#212529" points="106.411,90.5 106.411,133.29 115.416,133.29 115.411,90.5 "/>
<polygon fill="#212529" points="106.411,151.018 106.417,192.999 117.089,192.999 141,167.65 142.469,167.703 142.469,157.168 
	138.421,157.167 115.313,181.688 115.416,151.031 "/>
<g>
	<g>
		<polygon fill="#212529" points="175.584,151.018 175.584,192.999 164.911,192.999 141,167.65 140.109,167.703 140.109,157.167 
			143.58,157.169 166.688,181.688 166.667,151.018 		"/>
	</g>
</g>
<g>
	<path fill="#212529" d="M88.922,133.29h-3L86,77.373c0.001-0.828,0.672-1.498,1.5-1.498h107.084c0.828,0,1.5,0.671,1.5,1.5v55.915
		h-3.021l0.021-54.415H88.998L88.922,133.29z"/>
</g>
<g>
	<path fill="#212529" d="M193.063,151.018h3.021l-0.053,55.111c0,0.828-0.672,1.498-1.5,1.498H87.448c-0.828,0-1.5-0.671-1.5-1.5
		l-0.026-55.109h3l0.026,53.609h104.085L193.063,151.018z"/>
</g>
<path stroke="#009640" stroke-width="3" stroke-linejoin="round" stroke-miterlimit="10" d="M87.125,139.5"/>
<path d="M193.078,116.359"/>
<rect x="71.333" y="138.721" fill="#212529" width="139.346" height="5.99"/>
</svg>
